<mxfile host="app.diagrams.net" agent="Mozilla/5.0 (Windows NT 10.0; Win64; x64) AppleWebKit/537.36 (KHTML, like Gecko) Chrome/136.0.0.0 Safari/537.36 Edg/136.0.0.0" version="27.0.9">
  <diagram name="第 1 页" id="gCL7-VvjR3T29afBcv7j">
    <mxGraphModel dx="748" dy="438" grid="1" gridSize="10" guides="1" tooltips="1" connect="1" arrows="1" fold="1" page="1" pageScale="1" pageWidth="827" pageHeight="1169" math="0" shadow="0">
      <root>
        <mxCell id="0" />
        <mxCell id="1" parent="0" />
        <mxCell id="x6Gx8H9wMD-MSSMYpnBd-21" value="" style="rounded=0;whiteSpace=wrap;html=1;dashed=1;" vertex="1" parent="1">
          <mxGeometry x="130" y="150" width="580" height="260" as="geometry" />
        </mxCell>
        <mxCell id="x6Gx8H9wMD-MSSMYpnBd-9" style="edgeStyle=orthogonalEdgeStyle;rounded=0;orthogonalLoop=1;jettySize=auto;html=1;exitX=0.5;exitY=1;exitDx=0;exitDy=0;entryX=0.5;entryY=0;entryDx=0;entryDy=0;" edge="1" parent="1" source="x6Gx8H9wMD-MSSMYpnBd-1" target="x6Gx8H9wMD-MSSMYpnBd-3">
          <mxGeometry relative="1" as="geometry" />
        </mxCell>
        <mxCell id="x6Gx8H9wMD-MSSMYpnBd-1" value="中小企业智能管理专家系统" style="rounded=0;whiteSpace=wrap;html=1;dashed=1;strokeWidth=1;fillColor=#e1d5e7;strokeColor=#9673a6;opacity=80;" vertex="1" parent="1">
          <mxGeometry x="250" y="170" width="440" height="40" as="geometry" />
        </mxCell>
        <mxCell id="x6Gx8H9wMD-MSSMYpnBd-2" value="项目名称" style="text;html=1;align=center;verticalAlign=middle;whiteSpace=wrap;rounded=0;" vertex="1" parent="1">
          <mxGeometry x="150" y="175" width="60" height="30" as="geometry" />
        </mxCell>
        <mxCell id="x6Gx8H9wMD-MSSMYpnBd-17" style="edgeStyle=orthogonalEdgeStyle;rounded=0;orthogonalLoop=1;jettySize=auto;html=1;exitX=0.5;exitY=1;exitDx=0;exitDy=0;entryX=0.5;entryY=0;entryDx=0;entryDy=0;" edge="1" parent="1" source="x6Gx8H9wMD-MSSMYpnBd-3" target="x6Gx8H9wMD-MSSMYpnBd-10">
          <mxGeometry relative="1" as="geometry" />
        </mxCell>
        <mxCell id="x6Gx8H9wMD-MSSMYpnBd-3" value="" style="rounded=0;whiteSpace=wrap;html=1;dashed=1;" vertex="1" parent="1">
          <mxGeometry x="249" y="240" width="441" height="60" as="geometry" />
        </mxCell>
        <mxCell id="x6Gx8H9wMD-MSSMYpnBd-4" value="企业问询" style="rounded=0;whiteSpace=wrap;html=1;fillColor=#dae8fc;strokeColor=#6c8ebf;" vertex="1" parent="1">
          <mxGeometry x="268.5" y="250" width="111" height="40" as="geometry" />
        </mxCell>
        <mxCell id="x6Gx8H9wMD-MSSMYpnBd-5" value="智能控制" style="rounded=0;whiteSpace=wrap;html=1;fillColor=#f8cecc;strokeColor=#b85450;opacity=80;" vertex="1" parent="1">
          <mxGeometry x="410" y="250" width="120" height="40" as="geometry" />
        </mxCell>
        <mxCell id="x6Gx8H9wMD-MSSMYpnBd-6" value="专家团队" style="rounded=0;whiteSpace=wrap;html=1;fillColor=#fff2cc;strokeColor=#d6b656;" vertex="1" parent="1">
          <mxGeometry x="560" y="250" width="112" height="40" as="geometry" />
        </mxCell>
        <mxCell id="x6Gx8H9wMD-MSSMYpnBd-7" value="功能模块" style="text;html=1;align=center;verticalAlign=middle;whiteSpace=wrap;rounded=0;" vertex="1" parent="1">
          <mxGeometry x="150" y="255" width="60" height="30" as="geometry" />
        </mxCell>
        <mxCell id="x6Gx8H9wMD-MSSMYpnBd-10" value="" style="rounded=0;whiteSpace=wrap;html=1;dashed=1;" vertex="1" parent="1">
          <mxGeometry x="249" y="330" width="440" height="60" as="geometry" />
        </mxCell>
        <mxCell id="x6Gx8H9wMD-MSSMYpnBd-11" value="具体实现" style="text;html=1;align=center;verticalAlign=middle;whiteSpace=wrap;rounded=0;" vertex="1" parent="1">
          <mxGeometry x="150" y="344" width="60" height="30" as="geometry" />
        </mxCell>
        <mxCell id="x6Gx8H9wMD-MSSMYpnBd-13" value="多模态交互与NLP交互技术" style="rounded=0;whiteSpace=wrap;html=1;fillColor=#dae8fc;strokeColor=#6c8ebf;opacity=60;" vertex="1" parent="1">
          <mxGeometry x="268.5" y="340" width="111" height="40" as="geometry" />
        </mxCell>
        <mxCell id="x6Gx8H9wMD-MSSMYpnBd-14" value="设备控制与AI分析集成技术&lt;span style=&quot;color: rgba(0, 0, 0, 0); font-family: monospace; font-size: 0px; text-align: start; text-wrap-mode: nowrap;&quot;&gt;%3CmxGraphModel%3E%3Croot%3E%3CmxCell%20id%3D%220%22%2F%3E%3CmxCell%20id%3D%221%22%20parent%3D%220%22%2F%3E%3CmxCell%20id%3D%222%22%20value%3D%22%E4%BC%81%E4%B8%9A%E9%97%AE%E8%AF%A2%22%20style%3D%22rounded%3D0%3BwhiteSpace%3Dwrap%3Bhtml%3D1%3B%22%20vertex%3D%221%22%20parent%3D%221%22%3E%3CmxGeometry%20x%3D%22259%22%20y%3D%22250%22%20width%3D%22111%22%20height%3D%2240%22%20as%3D%22geometry%22%2F%3E%3C%2FmxCell%3E%3C%2Froot%3E%3C%2FmxGraphModel%3E&lt;/span&gt;" style="rounded=0;whiteSpace=wrap;html=1;fillColor=#f8cecc;strokeColor=#b85450;opacity=60;" vertex="1" parent="1">
          <mxGeometry x="410" y="339" width="120.5" height="40" as="geometry" />
        </mxCell>
        <mxCell id="x6Gx8H9wMD-MSSMYpnBd-15" value="多智能体协作架构" style="rounded=0;whiteSpace=wrap;html=1;fillColor=#fff2cc;strokeColor=#d6b656;opacity=60;" vertex="1" parent="1">
          <mxGeometry x="561" y="340" width="111" height="40" as="geometry" />
        </mxCell>
        <mxCell id="x6Gx8H9wMD-MSSMYpnBd-16" value="" style="endArrow=classic;html=1;rounded=0;exitX=0.15;exitY=0.999;exitDx=0;exitDy=0;exitPerimeter=0;entryX=0.15;entryY=0.018;entryDx=0;entryDy=0;entryPerimeter=0;" edge="1" parent="1" source="x6Gx8H9wMD-MSSMYpnBd-3" target="x6Gx8H9wMD-MSSMYpnBd-10">
          <mxGeometry width="50" height="50" relative="1" as="geometry">
            <mxPoint x="360" y="400" as="sourcePoint" />
            <mxPoint x="316" y="330" as="targetPoint" />
          </mxGeometry>
        </mxCell>
        <mxCell id="x6Gx8H9wMD-MSSMYpnBd-19" value="" style="endArrow=classic;html=1;rounded=0;exitX=0.841;exitY=1;exitDx=0;exitDy=0;exitPerimeter=0;entryX=0.843;entryY=0.041;entryDx=0;entryDy=0;entryPerimeter=0;" edge="1" parent="1" source="x6Gx8H9wMD-MSSMYpnBd-3" target="x6Gx8H9wMD-MSSMYpnBd-10">
          <mxGeometry width="50" height="50" relative="1" as="geometry">
            <mxPoint x="360" y="400" as="sourcePoint" />
            <mxPoint x="410" y="350" as="targetPoint" />
          </mxGeometry>
        </mxCell>
      </root>
    </mxGraphModel>
  </diagram>
</mxfile>
